<svg width="60" height="60" viewBox="0 0 60 60" fill="none" xmlns="http://www.w3.org/2000/svg">
<g clip-path="url(#clip0_27_362)">
<path d="M30 60C46.5685 60 60 46.5685 60 30C60 13.4315 46.5685 0 30 0C13.4315 0 0 13.4315 0 30C0 46.5685 13.4315 60 30 60Z" fill="#65A2D9"/>
<path d="M46.0563 16.3273C42.9271 19.0424 39.8157 21.422 37.2726 24.7474C31.0171 32.291 23.3727 42.9935 12.9696 41.3981L31.5567 59.9602C47.3133 59.1547 59.8571 46.1914 59.9965 30.2677L46.0563 16.3273Z" fill="#3A7CA5"/>
<path d="M46.6256 19.0396C45.8624 19.3781 45.0704 19.6451 44.2575 19.8382C45.1533 18.9873 45.8267 17.9227 46.2065 16.7346C46.315 16.3956 45.9464 16.102 45.6402 16.2837C44.5093 16.9546 43.2913 17.4574 42.0198 17.7792C41.9462 17.798 41.8703 17.8074 41.7938 17.8074C41.5618 17.8074 41.3372 17.7215 41.1597 17.5654C39.8071 16.3731 38.0671 15.7165 36.2606 15.7165C35.4788 15.7165 34.6897 15.8384 33.915 16.0787C31.5142 16.8232 29.6617 18.8038 29.0802 21.247C28.8622 22.1632 28.8034 23.0808 28.9049 23.9733C28.9163 24.0759 28.8681 24.1474 28.8382 24.1809C28.7855 24.2398 28.7112 24.2736 28.6337 24.2736C28.6253 24.2736 28.6161 24.2733 28.6075 24.2725C23.3521 23.784 18.6129 21.2523 15.2634 17.1431C15.0929 16.9335 14.765 16.9593 14.6289 17.1926C13.9731 18.3183 13.6265 19.6054 13.6265 20.9152C13.6265 22.9222 14.4332 24.814 15.8339 26.1932C15.2448 26.0534 14.6746 25.8334 14.1448 25.539C13.8884 25.3968 13.5733 25.58 13.5696 25.8731C13.5333 28.855 15.2792 31.5083 17.8944 32.7031C17.8417 32.7042 17.789 32.7047 17.7362 32.7047C17.3217 32.7047 16.9017 32.6651 16.4888 32.5858C16.2001 32.531 15.9577 32.8045 16.0472 33.0841C16.8963 35.7347 19.1781 37.6882 21.909 38.1314C19.6427 39.6529 17.0032 40.4552 14.2565 40.4552L13.4003 40.4549C13.136 40.4549 12.9128 40.627 12.846 40.8826C12.7798 41.134 12.9015 41.3998 13.1268 41.5307C16.2219 43.3321 19.7527 44.284 23.3383 44.284C26.477 44.284 29.413 43.6614 32.0647 42.4327C34.4958 41.3066 36.644 39.6969 38.4498 37.6483C40.1323 35.7397 41.4476 33.5367 42.3598 31.0999C43.2291 28.7777 43.6887 26.2991 43.6887 23.9334V23.8205C43.6887 23.4407 43.8604 23.0832 44.1602 22.8396C45.2977 21.9159 46.2884 20.8289 47.1042 19.6085C47.3199 19.2865 46.98 18.8824 46.6256 19.0396Z" fill="white"/>
</g>
<defs>
<clipPath id="clip0_27_362">
<rect width="60" height="60" rx="30" fill="white"/>
</clipPath>
</defs>
</svg>
